<?xml version="1.0" encoding="UTF-8" standalone="no"?>
<!-- Created with Inkscape (http://www.inkscape.org/) -->

<svg
   xmlns:dc="http://purl.org/dc/elements/1.1/"
   xmlns:cc="http://creativecommons.org/ns#"
   xmlns:rdf="http://www.w3.org/1999/02/22-rdf-syntax-ns#"
   xmlns:svg="http://www.w3.org/2000/svg"
   xmlns="http://www.w3.org/2000/svg"
   xmlns:sodipodi="http://sodipodi.sourceforge.net/DTD/sodipodi-0.dtd"
   xmlns:inkscape="http://www.inkscape.org/namespaces/inkscape"
   width="210mm"
   height="297mm"
   viewBox="0 0 210 297"
   version="1.1"
   id="svg8"
   inkscape:version="0.92.3 (2405546, 2018-03-11)"
   sodipodi:docname="balloon.svg">
  <defs
     id="defs2" />
  <sodipodi:namedview
     id="base"
     pagecolor="#ffffff"
     bordercolor="#666666"
     borderopacity="1.0"
     inkscape:pageopacity="0.0"
     inkscape:pageshadow="2"
     inkscape:zoom="0.35"
     inkscape:cx="400"
     inkscape:cy="560"
     inkscape:document-units="mm"
     inkscape:current-layer="layer1"
     showgrid="false"
     inkscape:window-width="1299"
     inkscape:window-height="713"
     inkscape:window-x="67"
     inkscape:window-y="27"
     inkscape:window-maximized="1" />
  <metadata
     id="metadata5">
    <rdf:RDF>
      <cc:Work
         rdf:about="">
        <dc:format>image/svg+xml</dc:format>
        <dc:type
           rdf:resource="http://purl.org/dc/dcmitype/StillImage" />
        <dc:title></dc:title>
      </cc:Work>
    </rdf:RDF>
  </metadata>
  <g
     inkscape:label="Layer 1"
     inkscape:groupmode="layer"
     id="layer1">
    <rect
       id="rect10"
       width="212.42261"
       height="297.08929"
       x="0.75595242"
       y="1.422619"
       style="stroke-width:0.26458332;fill:#000000" />
    <ellipse
       style="fill:#aa0000;stroke-width:0.26458332"
       id="path14"
       cx="106.96725"
       cy="140.89584"
       rx="27.59226"
       ry="37.419643" />
    <path
       style="fill:#2b0000;stroke:#000000;stroke-width:0.26458332px;stroke-linecap:butt;stroke-linejoin:miter;stroke-opacity:1"
       d="m 107.34524,179.07143 c -1.03992,39.30952 0.71441,78.61905 1.5119,117.92857"
       id="path16"
       inkscape:connector-curvature="0"
       sodipodi:nodetypes="cc" />
    <path
       style="fill:#000080;stroke-width:2.85714293"
       d="M 4.5714286,566.51969 V 6.519685 h 400.0000014 400 V 566.51969 1126.5197 h -400 H 4.5714286 Z M 406.67154,784.37683 c -0.58857,-7.46429 -1.07011,-1.35714 -1.07011,13.57143 0,14.92857 0.48154,21.03571 1.07011,13.57143 0.58857,-7.46429 0.58857,-19.67858 0,-27.14286 z m 30.1544,-117.29623 c 27.9632,-12.36943 51.88112,-42.16297 64.11383,-79.86394 5.70474,-17.58183 7.22446,-28.28635 7.4002,-52.12555 0.34994,-47.4642 -12.21086,-84.00185 -38.93971,-113.27031 -54.6534,-59.84617 -136.5022,-29.58974 -163.75806,60.5352 -7.1156,23.52866 -7.11483,76.18503 10e-4,99.87797 13.9082,46.30586 41.67845,78.09686 78.92777,90.3554 11.13728,3.6652 37.89134,0.84474 52.25451,-5.50877 z"
       id="path18"
       inkscape:connector-curvature="0"
       transform="scale(0.26458333)" />
    <path
       style="fill:#002255;stroke-width:2.85714293"
       d="M 4.5714286,566.51969 V 6.519685 h 400.0000014 400 V 566.51969 1126.5197 h -400 H 4.5714286 Z M 406.61786,790.09111 c -0.65463,-4.32142 -1.19026,-0.78571 -1.19026,7.85715 0,8.64285 0.53563,12.17857 1.19026,7.85714 0.65465,-4.32143 0.65465,-11.39286 0,-15.71429 z m 29.93008,-122.88754 c 27.46477,-12.14897 51.295,-41.17114 64.45812,-78.5018 6.10468,-17.31291 7.3376,-25.96386 7.43685,-52.18208 0.18943,-50.05455 -11.40228,-84.46763 -38.40385,-114.01166 -38.97146,-42.641 -90.78163,-42.72423 -130.98943,-0.21029 -31.18132,32.96966 -44.86163,82.03903 -38.01786,136.36492 6.03534,47.90843 33.73486,91.18537 69.81092,109.0706 12.77877,6.33525 18.07882,7.34534 33.77477,6.43694 10.34837,-0.59894 24.53054,-3.69314 31.93048,-6.96651 z"
       id="path22"
       inkscape:connector-curvature="0"
       transform="scale(0.26458333)" />
    <path
       style="fill:none;stroke:#000000;stroke-width:0.26458332px;stroke-linecap:butt;stroke-linejoin:miter;stroke-opacity:1"
       d="m 107.34524,179.07143 c 3.56618,65.33837 1.63765,83.97164 1.5119,117.92857 v 0"
       id="path24"
       inkscape:connector-curvature="0"
       sodipodi:nodetypes="ccc" />
    <path
       style="fill:#ffffff;stroke-width:2.85714293"
       d="M 4.5714286,566.51969 V 6.519685 h 400.0000014 400 V 566.51969 1126.5197 h -400 H 4.5714286 Z M 412.41751,1041.6681 c -0.51471,-15.4031 -0.93811,-3.577 -0.94085,26.2802 -0.003,29.8571 0.4184,42.4596 0.93585,28.0055 0.51746,-14.4541 0.51972,-38.8827 0.006,-54.2857 z m 2.85535,-131.57699 c -0.51375,-15.32142 -0.93406,-2.78571 -0.93406,27.85715 0,30.64285 0.42031,43.17857 0.93406,27.85714 0.51374,-15.32143 0.51374,-40.39286 0,-55.71429 z m -2.86569,-110 c -0.54234,-11.39285 -0.98606,-2.07142 -0.98606,20.71429 0,22.78571 0.44372,32.10714 0.98606,20.71429 0.54232,-11.39286 0.54232,-30.03572 0,-41.42858 z m -2.87848,-70 c -0.58858,-7.46428 -1.07012,-1.35714 -1.07012,13.57143 0,14.92857 0.48154,21.03572 1.07012,13.57143 0.58857,-7.46428 0.58857,-19.67857 0,-27.14286 z m -2.8866,-44.23454 c -0.63589,-5.13528 -1.16929,-1.6226 -1.18532,7.80597 -0.0171,9.42857 0.50423,13.63017 1.15617,9.33689 0.65192,-4.29329 0.66503,-12.00757 0.0292,-17.14286 z m 34.22251,-21.03828 c 26.0804,-12.55863 50.68357,-45.84246 61.957,-83.81718 5.98883,-20.1734 6.18391,-72.94085 0.35243,-95.32945 -9.94546,-38.18315 -36.37946,-73.59312 -65.37263,-87.57066 -49.65391,-23.93803 -110.19394,13.54849 -131.06729,81.15717 -8.15402,26.4108 -8.66751,77.34926 -1.03685,102.85377 13.47291,45.03152 42.84445,78.7152 78.87417,90.45395 11.83237,3.85508 40.34826,-0.0694 56.29317,-7.7476 z"
       id="path26"
       inkscape:connector-curvature="0"
       transform="scale(0.26458333)" />
    <path
       sodipodi:type="star"
       style="fill:#000000;stroke-width:0.26458332"
       id="path36"
       sodipodi:sides="5"
       sodipodi:cx="94.494041"
       sodipodi:cy="132.20238"
       sodipodi:r1="12.095238"
       sodipodi:r2="6.0476189"
       sodipodi:arg1="3.1415927"
       sodipodi:arg2="3.7699112"
       inkscape:flatsided="false"
       inkscape:rounded="0"
       inkscape:randomized="0"
       d="m 82.398804,132.20238 7.202611,-3.5547 1.154993,-7.94856 5.606451,5.75163 7.916431,-1.35777 -3.73763,7.1094 3.73763,7.1094 -7.916432,-1.35778 -5.606451,5.75163 -1.154992,-7.94855 z"
       inkscape:transform-center-x="1.1549936"
       inkscape:transform-center-y="-1.6655418e-06" />
    <path
       sodipodi:type="star"
       style="fill:#000000;stroke-width:0.26458332"
       id="path38"
       sodipodi:sides="5"
       sodipodi:cx="123.22024"
       sodipodi:cy="131.44643"
       sodipodi:r1="10.282064"
       sodipodi:r2="5.1410317"
       sodipodi:arg1="1.8692953"
       sodipodi:arg2="2.4976138"
       inkscape:flatsided="false"
       inkscape:rounded="0"
       inkscape:randomized="0"
       d="m 120.19643,141.27381 -1.08754,-6.7408 -6.16946,-2.92557 6.07481,-3.11733 0.87592,-6.77155 4.84198,4.81418 6.7108,-1.25948 -3.0823,6.09266 3.27158,5.99315 -6.74694,-1.04871 z"
       inkscape:transform-center-x="0.93441007"
       inkscape:transform-center-y="0.049754397" />
    <ellipse
       style="fill:#ffffff;stroke-width:0.26458332"
       id="path40"
       cx="92.98214"
       cy="133.30084"
       rx="3.3807216"
       ry="4.6531644" />
  </g>
</svg>
